<?xml version="1.0" encoding="UTF-8"?>
<!DOCTYPE svg PUBLIC "-//W3C//DTD SVG 1.1//EN" "http://www.w3.org/Graphics/SVG/1.1/DTD/svg11.dtd">
<!-- Creator: CorelDRAW 2018 (64 Bit Versão de avaliação) -->
<svg xmlns="http://www.w3.org/2000/svg" xml:space="preserve" width="63.1231mm" height="64.2168mm" version="1.1" style="shape-rendering:geometricPrecision; text-rendering:geometricPrecision; image-rendering:optimizeQuality; fill-rule:evenodd; clip-rule:evenodd"
viewBox="0 0 10286.04 10464.27"
 xmlns:xlink="http://www.w3.org/1999/xlink">
 <defs>
  <style type="text/css">
   <![CDATA[
    .str0 {stroke:black;stroke-width:32.59;stroke-miterlimit:22.9256}
    .fil0 {fill:#818181}
   ]]>
  </style>
 </defs>
 <g id="Camada_x0020_1">
  <metadata id="CorelCorpID_0Corel-Layer"/>
  <path class="fil0 str0" d="M2955.37 16.3c-1623.2,0 -2939.07,1315.87 -2939.07,2939.07 0,1623.2 1315.87,2939.07 2939.07,2939.07 318.34,0 624.79,-50.82 911.88,-144.44l247.36 254.04 951.95 -73.59 0 1234.51 1227.23 0 -26.9 1046.54 1103.72 13.8 -13.8 1048.53 1117.53 -27.59 135.89 1074.65 1657.68 125.65 -151.76 -1517.62 -4576.38 -4572.75c226.18,-416.42 354.68,-893.61 354.68,-1400.82 0,-1623.2 -1315.87,-2939.07 -2939.07,-2939.07zm-899.54 1437.03c-320.02,0 -579.46,259.44 -579.46,579.46 0,320.02 259.44,579.46 579.46,579.46 320.02,0 579.46,-259.44 579.46,-579.46 0,-320.02 -259.44,-579.46 -579.46,-579.46z"/>
 </g>
</svg>
