<?xml version="1.0" encoding="UTF-8"?>
<!DOCTYPE svg PUBLIC "-//W3C//DTD SVG 1.1//EN" "http://www.w3.org/Graphics/SVG/1.1/DTD/svg11.dtd">
<!-- Creator: CorelDRAW 2018 (64 Bit Versão de avaliação) -->
<svg xmlns="http://www.w3.org/2000/svg" xml:space="preserve" width="47.974mm" height="47.974mm" version="1.1" style="shape-rendering:geometricPrecision; text-rendering:geometricPrecision; image-rendering:optimizeQuality; fill-rule:evenodd; clip-rule:evenodd"
viewBox="0 0 603.26 603.26"
 xmlns:xlink="http://www.w3.org/1999/xlink">
 <defs>
  <style type="text/css">
   <![CDATA[
    .fil0 {fill:#818181}
   ]]>
  </style>
 </defs>
 <g id="Camada_x0020_1">
  <metadata id="CorelCorpID_0Corel-Layer"/>
  <path class="fil0" d="M338.3 42.48c21.22,3.13 41.6,8.8 60.84,16.7l31.19 -31.19 44.13 25.14 -11.65 43.49c16.2,12.91 30.84,27.7 43.58,44.05l43.51 -11.66 25.65 43.83 -32.28 32.28c7.45,18.82 12.8,38.71 15.72,59.38l43.96 11.78 0.3 50.79 -44.32 11.88c-2.96,20.63 -8.32,40.48 -15.8,59.26l32.14 32.14 -25.14 44.13 -44.06 -11.81c-12.72,16.25 -27.31,30.95 -43.46,43.79l11.64 43.46 -43.83 25.65 -31.68 -31.68c-19.09,7.8 -39.31,13.42 -60.35,16.53l-11.4 42.55 -50.79 0.3 -11.35 -42.34c-21.39,-2.85 -41.96,-8.29 -61.39,-15.99l-30.63 30.63 -43.83 -25.65 11.01 -41.09c-17.08,-13.18 -32.49,-28.42 -45.84,-45.35l-41.04 11 -25.14 -44.13 29.54 -29.54c-8.15,-19.85 -13.93,-40.92 -16.99,-62.87l-40.54 -10.86 0.3 -50.79 40.17 -10.76c3.02,-21.99 8.77,-43.1 16.91,-63l-29.68 -29.68 25.65 -43.83 40.51 10.85c13.38,-17.02 28.83,-32.35 45.96,-45.6l-11.02 -41.13 44.13 -25.14 30.15 30.15c19.58,-7.79 40.31,-13.29 61.88,-16.16l11.25 -41.98 50.79 0.3 11.3 42.19zm-36.67 44.84c118.36,0 214.3,95.95 214.3,214.3 0,118.36 -95.95,214.3 -214.3,214.3 -118.36,0 -214.3,-95.95 -214.3,-214.3 0,-118.36 95.95,-214.3 214.3,-214.3z"/>
 </g>
</svg>
